#!OML:ASF H:\Dans Jumps\Project 1\Capture day 1\Session 1\subject.ASF
:FULLY-SPECIFIED
:DEGREES
213
root 0.365583 17.528 -14.2903 6.37737 -0.850388 -1.73755
lowerback -0.647746 -0.329033 0.0537711
upperback 2.99781 -0.490465 1.65327
thorax 3.45792 -0.268878 1.65288
lowerneck -15.3937 -0.0262281 -2.16642
upperneck 29.4585 0.0927775 1.56471
head 12.269 -0.000560403 0.97904
rclavicle -2.43511e-015 -1.39149e-015
rhumerus -22.4277 -17.3394 -79.3371
rradius 25.5295
rwrist 31.7188
rhand -19.1789 -26.6717
rfingers 7.12502
rthumb 7.13246 -56.5316
lclavicle -2.43511e-015 -1.39149e-015
lhumerus -21.0962 7.14436 81.8801
lradius 17.3031
lwrist -2.35684
lhand -25.3513 -4.1704
lfingers 7.12502
lthumb 1.17224 25.8061
rfemur -14.1366 -2.65555 19.5059
rtibia 21.4155
rfoot -12.9705 -2.74813
rtoes 9.44903
lfemur -13.4449 6.92662 -17.4877
ltibia 20.2709
lfoot -11.2624 4.14772
ltoes -1.97885
214
root 0.365756 17.5274 -14.2857 6.34157 -0.856134 -1.73134
lowerback -0.668448 -0.332449 0.0532806
upperback 2.99925 -0.495089 1.64783
thorax 3.4712 -0.271162 1.64728
lowerneck -15.3788 0.00273338 -2.11991
upperneck 29.6506 0.146734 1.47871
head 12.3422 0.0162196 0.948265
rclavicle 1.54058e-015 0
rhumerus -22.4334 -17.3692 -79.3414
rradius 25.4422
rwrist 31.8338
rhand -19.1699 -26.6793
rfingers 7.12502
rthumb 7.14118 -56.5389
lclavicle 1.54058e-015 0
lhumerus -21.113 7.30038 81.8973
lradius 17.1951
lwrist -2.4999
lhand -25.3331 -4.17804
lfingers 7.12502
lthumb 1.18989 25.7984
rfemur -14.0811 -2.67261 19.4959
rtibia 21.4167
rfoot -12.9877 -2.72906
rtoes 9.43324
lfemur -13.376 6.92259 -17.4888
ltibia 20.2545
lfoot -11.2755 4.1589
ltoes -1.96392
215
root 0.365939 17.5269 -14.281 6.30595 -0.861455 -1.72675
lowerback -0.691372 -0.33647 0.0556983
upperback 3.00033 -0.50064 1.64339
thorax 3.48537 -0.273842 1.64104
lowerneck -15.3597 0.0306587 -2.08238
upperneck 29.8403 0.199561 1.40062
head 12.4139 0.0324645 0.921736
rclavicle 2.33572e-015 -1.59028e-014
rhumerus -22.441 -17.3845 -79.3487
rradius 25.3634
rwrist 31.9396
rhand -19.1655 -26.6765
rfingers 7.12502
rthumb 7.14541 -56.5359
lclavicle 2.33572e-015 -1.59028e-014
lhumerus -21.1353 7.42384 81.9249
lradius 17.104
lwrist -2.62222
lhand -25.3126 -4.1783
lfingers 7.12502
lthumb 1.20966 25.798
rfemur -14.024 -2.68378 19.4873
rtibia 21.4155
rfoot -13.0041 -2.71469
rtoes 9.434
lfemur -13.3089 6.91724 -17.488
ltibia 20.2417
lfoot -11.291 4.17161
ltoes -1.95508
216
root 0.366086 17.5263 -14.2764 6.27232 -0.864222 -1.72506
lowerback -0.715547 -0.34207 0.0614224
upperback 2.9997 -0.508439 1.64118
thorax 3.49853 -0.277573 1.63514
lowerneck -15.3386 0.0600215 -2.05233
upperneck 30.0289 0.254875 1.32901
head 12.4851 0.0497507 0.899242
rclavicle 2.6339e-015 2.18663e-014
rhumerus -22.4511 -17.3847 -79.3575
rradius 25.294
rwrist 32.0394
rhand -19.163 -26.6601
rfingers 7.12502
rthumb 7.1478 -56.5194
lclavicle 2.6339e-015 2.18663e-014
lhumerus -21.1636 7.5047 81.9664
lradius 17.0309
lwrist -2.71268
lhand -25.278 -4.15488
lfingers 7.12502
lthumb 1.24303 25.8212
rfemur -13.9674 -2.68828 19.4825
rtibia 21.412
rfoot -13.0195 -2.71036
rtoes 9.43128
lfemur -13.2473 6.91221 -17.4841
ltibia 20.2334
lfoot -11.3065 4.18362
ltoes -1.96628
217
root 0.36617 17.5257 -14.2719 6.24115 -0.864798 -1.72737
lowerback -0.740044 -0.349066 0.0715755
upperback 2.99768 -0.518259 1.64084
thorax 3.51048 -0.282205 1.62861
lowerneck -15.313 0.0921556 -2.02777
upperneck 30.212 0.313689 1.26471
head 12.5534 0.068879 0.880871
rclavicle -7.50412e-015 -4.17448e-015
rhumerus -22.4641 -17.37 -79.3695
rradius 25.2378
rwrist 32.1269
rhand -19.1586 -26.6311
rfingers 7.12502
rthumb 7.15205 -56.4902
lclavicle -7.50412e-015 -4.17448e-015
lhumerus -21.1961 7.53278 82.0231
lradius 16.9756
lwrist -2.76163
lhand -25.2422 -4.12548
lfingers 7.12502
lthumb 1.27762 25.8504
rfemur -13.9131 -2.68618 19.4829
rtibia 21.4067
rfoot -13.0328 -2.71608
rtoes 9.42791
lfemur -13.1919 6.90697 -17.476
ltibia 20.229
lfoot -11.3224 4.19492
ltoes -1.9893
218
root 0.366187 17.5253 -14.2675 6.21173 -0.863286 -1.73262
lowerback -0.763836 -0.356894 0.0851082
upperback 2.99369 -0.529292 1.64205
thorax 3.52 -0.287354 1.62173
lowerneck -15.2737 0.126108 -2.01006
upperneck 30.3812 0.374195 1.20962
head 12.6133 0.0891901 0.867219
rclavicle 4.07509e-015 -8.54774e-015
rhumerus -22.4835 -17.3439 -79.3823
rradius 25.1932
rwrist 32.207
rhand -19.1555 -26.5883
rfingers 7.12502
rthumb 7.155 -56.4474
lclavicle 4.07509e-015 -8.54774e-015
lhumerus -21.2357 7.4969 82.0978
lradius 16.9403
lwrist -2.75928
lhand -25.2024 -4.0898
lfingers 7.12502
lthumb 1.3161 25.8859
rfemur -13.8599 -2.6806 19.4874
rtibia 21.3997
rfoot -13.0449 -2.72874
rtoes 9.4083
lfemur -13.1414 6.90145 -17.4647
ltibia 20.2287
lfoot -11.3394 4.2051
ltoes -2.00692
219
root 0.36618 17.5249 -14.2631 6.18529 -0.86226 -1.73946
lowerback -0.7893 -0.3645 0.100541
upperback 2.98907 -0.540124 1.64423
thorax 3.5298 -0.29236 1.61476
lowerneck -15.229 0.16269 -1.99618
upperneck 30.539 0.437274 1.16231
head 12.6676 0.111242 0.857437
rclavicle 1.73937e-015 -1.47101e-014
rhumerus -22.5058 -17.3061 -79.3967
rradius 25.16
rwrist 32.2738
rhand -19.1516 -26.5443
rfingers 7.12502
rthumb 7.15879 -56.4033
lclavicle 1.73937e-015 -1.47101e-014
lhumerus -21.2792 7.39701 82.1916
lradius 16.9299
lwrist -2.7013
lhand -25.1467 -4.01367
lfingers 7.12502
lthumb 1.36991 25.9617
rfemur -13.8097 -2.67399 19.4941
rtibia 21.3916
rfoot -13.0566 -2.74318
rtoes 9.37848
lfemur -13.0955 6.89476 -17.4519
ltibia 20.2305
lfoot -11.3554 4.21704
ltoes -2.02393
220
root 0.366093 17.5245 -14.2588 6.16065 -0.86093 -1.7486
lowerback -0.816297 -0.37131 0.11897
upperback 2.98468 -0.550015 1.64678
thorax 3.54065 -0.296821 1.60652
lowerneck -15.1781 0.199432 -1.98524
upperneck 30.6828 0.498974 1.12291
head 12.715 0.133438 0.850807
rclavicle 7.30534e-015 -6.95746e-015
rhumerus -22.5288 -17.2681 -79.412
rradius 25.1337
rwrist 32.3303
rhand -19.1465 -26.5013
rfingers 7.12502
rthumb 7.16371 -56.36
lclavicle 7.30534e-015 -6.95746e-015
lhumerus -21.3256 7.22733 82.3047
lradius 16.9469
lwrist -2.58457
lhand -25.0822 -3.91119
lfingers 7.12502
lthumb 1.43214 26.0637
rfemur -13.7611 -2.66545 19.5039
rtibia 21.3827
rfoot -13.0687 -2.76121
rtoes 9.33117
lfemur -13.052 6.88513 -17.4363
ltibia 20.2326
lfoot -11.3709 4.23032
ltoes -2.03463
221
root 0.366032 17.5241 -14.2544 6.1365 -0.861068 -1.75639
lowerback -0.844766 -0.377225 0.137324
upperback 2.98218 -0.558748 1.64873
thorax 3.55425 -0.30071 1.59775
lowerneck -15.1262 0.23568 -1.97611
upperneck 30.8123 0.558797 1.08916
head 12.7565 0.155411 0.846225
rclavicle 5.11871e-015 -2.18663e-015
rhumerus -22.5518 -17.2204 -79.4298
rradius 25.1161
rwrist 32.3686
rhand -19.1447 -26.4699
rfingers 7.12502
rthumb 7.1655 -56.3286
lclavicle 5.11871e-015 -2.18663e-015
lhumerus -21.3733 6.99941 82.4352
lradius 16.9901
lwrist -2.41937
lhand -25.0065 -3.76473
lfingers 7.12502
lthumb 1.50528 26.2097
rfemur -13.7126 -2.65901 19.5115
rtibia 21.374
rfoot -13.0824 -2.77406
rtoes 9.29754
lfemur -13.008 6.87379 -17.4225
ltibia 20.2333
lfoot -11.3854 4.24686
ltoes -2.04508
